<mxfile host="app.diagrams.net" modified="2024-04-20T23:34:32.358Z" agent="Mozilla/5.0 (Windows NT 10.0; Win64; x64) AppleWebKit/537.36 (KHTML, like Gecko) Chrome/124.0.0.0 Safari/537.36" version="24.2.7" etag="HIo1AOXDg-QGT6o4bbmT" type="github">
  <diagram name="第 1 页" id="jYvDmB9UrdElBcq9cQ24">
    <mxGraphModel>
      <root>
        <mxCell id="0" />
        <mxCell id="1" parent="0" />
      </root>
    </mxGraphModel>
  </diagram>
</mxfile>
